<?xml version="1.0" standalone="no"?>
<!DOCTYPE svg PUBLIC "-//W3C//DTD SVG 20010904//EN"
 "http://www.w3.org/TR/2001/REC-SVG-20010904/DTD/svg10.dtd">
<svg version="1.0" xmlns="http://www.w3.org/2000/svg"
 width="1016.000000pt" height="1024.000000pt" viewBox="0 0 1016.000000 1024.000000"
 preserveAspectRatio="xMidYMid meet">

<g transform="translate(0.000000,1024.000000) scale(0.100000,-0.100000)"
fill="#000000" stroke="none">
<path d="M445 8478 c243 -970 821 -3273 1285 -5118 463 -1845 843 -3356 843
-3357 1 0 1453 1407 3227 3129 1774 1721 3481 3378 3793 3681 l568 551 -78 22
c-43 12 -987 280 -2098 594 -1111 314 -2375 672 -2810 795 -434 123 -1769 501
-2965 840 -1196 338 -2182 618 -2191 620 -13 4 80 -380 426 -1757z m878 1266
c620 -175 1127 -322 1127 -326 0 -12 -1704 -1662 -1707 -1652 -10 36 -573
2293 -573 2299 0 4 6 5 13 3 6 -3 519 -149 1140 -324z m2489 -704 c623 -177
1133 -322 1135 -323 3 -4 -1695 -1651 -1705 -1654 -5 -2 -224 859 -580 2280
-2 9 1 17 7 17 6 0 520 -144 1143 -320z m-979 -856 c158 -631 285 -1149 283
-1152 -4 -4 -2204 614 -2269 637 -14 5 168 187 835 834 469 455 855 827 858
827 3 0 135 -516 293 -1146z m3460 153 c626 -177 1137 -327 1135 -332 -4 -13
-1690 -1651 -1697 -1648 -3 1 -132 507 -288 1124 -298 1185 -296 1179 -291
1179 2 0 515 -145 1141 -323z m-970 -858 c159 -633 287 -1152 285 -1154 -3 -3
-2229 623 -2275 640 -7 2 368 375 835 827 466 453 849 826 850 830 2 5 7 8 10
8 4 0 137 -518 295 -1151z m3469 151 c623 -177 1134 -322 1135 -324 4 -4
-1692 -1649 -1704 -1653 -4 -2 -136 509 -292 1135 -157 625 -286 1143 -289
1150 -2 6 1 12 7 12 6 0 520 -144 1143 -320z m-978 -856 c158 -631 285 -1149
282 -1152 -4 -3 -2276 635 -2283 642 -3 3 1701 1655 1708 1656 3 0 135 -516
293 -1146z m-5861 460 c612 -173 1117 -316 1124 -319 7 -2 -137 -149 -320
-327 -1144 -1113 -1378 -1340 -1381 -1337 -3 5 -576 2294 -576 2304 0 3 9 3
21 0 12 -4 521 -148 1132 -321z m2489 -705 c623 -176 1134 -322 1135 -323 4
-3 -1694 -1650 -1704 -1653 -4 -2 -136 507 -292 1130 -156 622 -286 1140 -289
1150 -2 9 0 17 6 17 6 0 520 -144 1144 -321z m-979 -855 c158 -631 286 -1149
283 -1152 -5 -4 -2206 614 -2268 637 -14 5 161 180 835 834 468 454 854 827
857 827 3 0 135 -516 293 -1146z m3460 153 c626 -178 1139 -325 1140 -328 3
-8 -1695 -1655 -1702 -1651 -3 2 -133 508 -288 1125 -298 1185 -296 1177 -291
1177 2 -1 515 -146 1141 -323z m-685 -2012 c-6 -6 -2278 639 -2278 646 0 4
383 379 852 834 l852 827 289 -1152 c159 -633 287 -1153 285 -1155z m-3645
905 c615 -174 1118 -319 1118 -323 -1 -7 -1689 -1650 -1700 -1655 -5 -1 -566
2219 -579 2291 -3 16 0 18 20 11 13 -4 526 -150 1141 -324z m2497 -707 c613
-173 1116 -316 1118 -318 3 -3 -1700 -1655 -1707 -1655 -3 0 -134 510 -290
1133 -156 622 -286 1141 -289 1151 -4 16 -1 18 24 12 16 -4 531 -149 1144
-323z m-997 -851 c158 -631 288 -1150 287 -1153 0 -5 -2279 637 -2286 644 -3
3 1699 1656 1706 1657 3 0 135 -516 293 -1148z m-888 -948 c616 -174 1125
-319 1131 -323 7 -3 -349 -356 -839 -831 -467 -454 -853 -826 -856 -828 -3 -1
-134 510 -290 1135 -157 626 -286 1146 -289 1156 -3 11 0 16 9 13 8 -3 518
-148 1134 -322z"/>
</g>
</svg>
